<svg width="23" height="22" viewBox="0 0 23 22" fill="none" xmlns="http://www.w3.org/2000/svg">
<path d="M22.3719 6.48382V0.413574C18.4751 0.413574 14.6757 1.72474 11.948 4.00716L11.2173 4.58991L10.4867 4.00716C7.71025 1.72474 3.9596 0.413574 0.0628204 0.413574V6.48382C0.0628204 8.13493 0.647343 9.68891 1.62154 11.0001C0.647343 12.3113 0.0628204 13.8652 0.0628204 15.5164V21.5866C3.9596 21.5866 7.75896 20.2754 10.4867 17.993L11.2173 17.4103C9.31767 16.2933 8.14864 14.3023 8.14864 12.0684V9.93173C8.14864 7.74644 9.31767 5.70683 11.2173 4.58991C13.117 5.70683 14.2861 7.74644 14.2861 9.93173V12.0684C14.2861 14.2537 13.117 16.2933 11.2173 17.4103L11.948 17.993C14.7244 20.2754 18.4751 21.5866 22.3719 21.5866V15.5164C22.3719 13.8652 21.7874 12.3113 20.8132 11.0001C21.7874 9.68891 22.3719 8.13493 22.3719 6.48382Z" fill="#FF4F00"/>
</svg>
